# Blender 3.1.0
# www.blender.org
mtllib desert_rose.mtl
o node
v -0.312500 -0.500000 0.250000
v -0.312500 -0.500000 -0.312500
v 0.250000 -0.500000 0.250000
v 0.250000 -0.500000 -0.312500
v -0.312500 -0.375000 -0.312500
v 0.250000 -0.375000 -0.312500
v -0.312500 -0.375000 0.250000
v 0.250000 -0.375000 0.250000
v 0.375000 -0.500000 0.062500
v 0.375000 -0.125000 0.062500
v 0.375000 -0.500000 0.312500
v 0.375000 -0.125000 0.312500
v 0.125000 -0.500000 0.062500
v 0.125000 -0.125000 0.062500
v 0.125000 -0.500000 0.312500
v 0.125000 -0.125000 0.312500
v 0.062500 -0.500000 -0.062500
v 0.062500 -0.187500 -0.062500
v 0.062500 -0.500000 0.250000
v 0.062500 -0.187500 0.250000
v -0.375000 -0.500000 -0.062500
v -0.375000 -0.187500 -0.062500
v -0.375000 -0.500000 0.250000
v -0.375000 -0.187500 0.250000
v 0.312500 -0.437500 -0.312500
v 0.312500 -0.250000 -0.312500
v 0.312500 -0.437500 -0.125000
v 0.312500 -0.250000 -0.125000
v -0.062500 -0.437500 -0.312500
v -0.062500 -0.250000 -0.312500
v -0.062500 -0.437500 -0.125000
v -0.062500 -0.250000 -0.125000
v 0.375000 -0.125000 0.062500
v 0.375000 0.062500 0.062500
v 0.375000 -0.125000 0.250000
v 0.375000 0.062500 0.250000
v 0.187500 -0.125000 0.062500
v 0.187500 0.062500 0.062500
v 0.187500 -0.125000 0.250000
v 0.187500 0.062500 0.250000
v -0.187500 -0.250000 0.125000
v -0.187500 -0.062500 0.125000
v -0.187500 -0.250000 0.312500
v -0.187500 -0.062500 0.312500
v -0.375000 -0.250000 0.125000
v -0.375000 -0.062500 0.125000
v -0.375000 -0.250000 0.312500
v -0.375000 -0.062500 0.312500
v 0.062500 -0.187500 -0.062500
v 0.062500 0.000000 -0.062500
v 0.062500 -0.187500 0.062500
v 0.062500 0.000000 0.062500
v -0.062500 -0.187500 -0.062500
v -0.062500 0.000000 -0.062500
v -0.062500 -0.187500 0.062500
v -0.062500 0.000000 0.062500
v -0.187500 -0.375000 -0.312500
v -0.187500 -0.187500 -0.312500
v -0.187500 -0.375000 -0.187500
v -0.187500 -0.187500 -0.187500
v -0.312500 -0.375000 -0.312500
v -0.312500 -0.187500 -0.312500
v -0.312500 -0.375000 -0.187500
v -0.312500 -0.187500 -0.187500
v 0.250000 -0.250000 -0.250000
v 0.250000 -0.062500 -0.250000
v 0.250000 -0.250000 -0.125000
v 0.250000 -0.062500 -0.125000
v 0.125000 -0.250000 -0.250000
v 0.125000 -0.062500 -0.250000
v 0.125000 -0.250000 -0.125000
v 0.125000 -0.062500 -0.125000
v 0.375000 0.125000 0.062500
v 0.375000 0.125000 0.250000
v 0.187500 0.125000 0.062500
v 0.187500 0.125000 0.250000
v 0.375000 0.092703 0.156250
v 0.187500 0.092703 0.156250
v 0.281250 0.092703 0.250000
v 0.281250 0.092703 0.062500
v 0.281250 0.062500 0.156250
v -0.187500 0.000000 0.125000
v -0.187500 0.000000 0.312500
v -0.375000 0.000000 0.125000
v -0.375000 0.000000 0.312500
v -0.187500 -0.032297 0.218750
v -0.375000 -0.032297 0.218750
v -0.281250 -0.032297 0.312500
v -0.281250 -0.032297 0.125000
v -0.281250 -0.062500 0.218750
v 0.093750 0.062500 -0.093750
v 0.093750 0.062500 0.093750
v -0.093750 0.062500 -0.093750
v -0.093750 0.062500 0.093750
v 0.093750 0.030203 0.000000
v -0.093750 0.030203 0.000000
v 0.000000 0.030203 0.093750
v 0.000000 0.030203 -0.093750
v 0.000000 0.000000 0.000000
v 0.281250 0.000000 -0.281250
v 0.281250 0.000000 -0.093750
v 0.093750 0.000000 -0.281250
v 0.093750 0.000000 -0.093750
v 0.281250 -0.032297 -0.187500
v 0.093750 -0.032297 -0.187500
v 0.187500 -0.032297 -0.093750
v 0.187500 -0.032297 -0.281250
v 0.187500 -0.062500 -0.187500
v -0.156250 -0.125000 -0.343750
v -0.156250 -0.125000 -0.156250
v -0.343750 -0.125000 -0.343750
v -0.343750 -0.125000 -0.156250
v -0.156250 -0.157297 -0.250000
v -0.343750 -0.157297 -0.250000
v -0.250000 -0.157297 -0.156250
v -0.250000 -0.157297 -0.343750
v -0.250000 -0.187500 -0.250000
vn -0.0000 -0.0000 -1.0000
vn 1.0000 -0.0000 -0.0000
vn -0.0000 -1.0000 -0.0000
vn -1.0000 -0.0000 -0.0000
vn -0.0000 -0.0000 1.0000
vn -0.0000 1.0000 -0.0000
vn -0.2914 0.9044 0.3116
vn -0.3116 0.9044 -0.2914
vn 0.2914 0.9044 -0.3116
vn 0.2914 0.9044 0.3116
vn -0.2914 0.9044 -0.3116
vn 0.3116 0.9044 0.2914
vn -0.3116 0.9044 0.2914
vn 0.3116 0.9044 -0.2914
vt 0.812500 0.250000
vt 0.750000 0.000000
vt 0.187500 0.000000
vt 0.812500 0.000000
vt 0.812500 0.812500
vt 0.187500 0.000000
vt 0.250000 0.000000
vt 0.250000 0.250000
vt 0.750000 0.000000
vt 0.250000 0.000000
vt 0.812500 0.000000
vt 0.250000 0.812500
vt 0.812500 0.125000
vt 0.187500 0.125000
vt 0.812500 0.187500
vt 0.250000 0.125000
vt 0.812500 0.125000
vt 0.250000 0.187500
vt 0.750000 0.125000
vt 0.187500 0.125000
vt 0.812500 0.750000
vt 0.250000 0.125000
vt 0.750000 0.125000
vt 0.250000 0.750000
vt 0.437500 0.000000
vt 0.125000 0.000000
vt 0.125000 0.437500
vt 0.437500 0.375000
vt 0.125000 0.375000
vt 0.125000 0.562500
vt 0.187500 0.000000
vt 0.875000 0.000000
vt 0.125000 0.187500
vt 0.187500 0.375000
vt 0.875000 0.375000
vt 0.125000 0.812500
vt 0.562500 0.000000
vt 0.375000 0.000000
vt 0.375000 0.437500
vt 0.562500 0.375000
vt 0.375000 0.375000
vt 0.375000 0.562500
vt 0.625000 0.000000
vt 0.812500 0.000000
vt 0.375000 0.187500
vt 0.625000 0.375000
vt 0.812500 0.375000
vt 0.375000 0.812500
vt 0.562500 0.000000
vt 0.437500 0.000000
vt 0.437500 0.562500
vt 0.562500 0.312500
vt 0.437500 0.312500
vt 0.437500 0.437500
vt 0.250000 0.000000
vt 0.562500 0.000000
vt 0.437500 0.250000
vt 0.250000 0.312500
vt 0.562500 0.312500
vt 0.437500 0.750000
vt 0.437500 0.000000
vt 0.875000 0.000000
vt 0.875000 0.562500
vt 0.437500 0.312500
vt 0.875000 0.312500
vt 0.875000 0.437500
vt 0.125000 0.000000
vt 0.750000 0.000000
vt 0.875000 0.250000
vt 0.125000 0.312500
vt 0.750000 0.312500
vt 0.875000 0.750000
vt 0.812500 0.062500
vt 0.187500 0.062500
vt 0.187500 0.812500
vt 0.812500 0.250000
vt 0.187500 0.250000
vt 0.187500 0.187500
vt 0.625000 0.062500
vt 0.812500 0.062500
vt 0.187500 0.625000
vt 0.625000 0.250000
vt 0.812500 0.250000
vt 0.187500 0.375000
vt 0.187500 0.062500
vt 0.562500 0.062500
vt 0.562500 0.812500
vt 0.187500 0.250000
vt 0.562500 0.250000
vt 0.562500 0.187500
vt 0.437500 0.062500
vt 0.375000 0.062500
vt 0.562500 0.625000
vt 0.437500 0.250000
vt 0.375000 0.250000
vt 0.562500 0.375000
vt 0.375000 0.375000
vt 0.125000 0.375000
vt 0.125000 0.750000
vt 0.375000 0.562500
vt 0.125000 0.562500
vt 0.125000 0.625000
vt 0.187500 0.375000
vt 0.875000 0.375000
vt 0.125000 0.500000
vt 0.187500 0.562500
vt 0.875000 0.562500
vt 0.125000 0.812500
vt 0.625000 0.375000
vt 0.312500 0.375000
vt 0.375000 0.750000
vt 0.625000 0.562500
vt 0.312500 0.562500
vt 0.312500 0.625000
vt 0.687500 0.375000
vt 0.812500 0.375000
vt 0.375000 0.500000
vt 0.687500 0.562500
vt 0.812500 0.562500
vt 0.312500 0.812500
vt 0.375000 0.000000
vt 0.687500 0.250000
vt 0.687500 0.375000
vt 0.625000 0.000000
vt 0.687500 0.437500
vt 0.687500 0.625000
vt 0.375000 0.250000
vt 0.312500 0.250000
vt 0.687500 0.187500
vt 0.625000 0.250000
vt 0.312500 0.437500
vt 0.687500 0.812500
vt 0.625000 0.250000
vt 0.875000 0.250000
vt 0.875000 0.375000
vt 0.625000 0.437500
vt 0.875000 0.437500
vt 0.875000 0.625000
vt 0.125000 0.250000
vt 0.812500 0.250000
vt 0.875000 0.187500
vt 0.125000 0.437500
vt 0.812500 0.437500
vt 0.875000 0.812500
vt 0.562500 0.312500
vt 0.437500 0.312500
vt 0.125000 0.750000
vt 0.562500 0.500000
vt 0.437500 0.500000
vt 0.437500 0.437500
vt 0.437500 0.312500
vt 0.562500 0.312500
vt 0.125000 0.500000
vt 0.437500 0.500000
vt 0.562500 0.500000
vt 0.437500 0.562500
vt 0.437500 0.312500
vt 0.562500 0.312500
vt 0.375000 0.750000
vt 0.437500 0.500000
vt 0.562500 0.500000
vt 0.562500 0.437500
vt 0.437500 0.312500
vt 0.562500 0.312500
vt 0.375000 0.500000
vt 0.437500 0.500000
vt 0.562500 0.500000
vt 0.562500 0.562500
vt 0.812500 0.125000
vt 0.687500 0.125000
vt 0.125000 0.750000
vt 0.812500 0.312500
vt 0.687500 0.312500
vt 0.687500 0.187500
vt 0.687500 0.125000
vt 0.375000 0.250000
vt 0.125000 0.500000
vt 0.625000 0.250000
vt 0.687500 0.312500
vt 0.187500 0.125000
vt 0.812500 0.125000
vt 0.375000 0.750000
vt 0.187500 0.312500
vt 0.812500 0.312500
vt 0.812500 0.187500
vt 0.312500 0.125000
vt 0.375000 0.500000
vt 0.625000 0.500000
vt 0.312500 0.312500
vt 0.812500 0.312500
vt 0.750000 0.250000
vt 0.250000 0.250000
vt 0.125000 0.750000
vt 0.750000 0.437500
vt 0.250000 0.437500
vt 0.250000 0.250000
vt 0.625000 0.250000
vt 0.750000 0.250000
vt 0.125000 0.500000
vt 0.625000 0.437500
vt 0.750000 0.437500
vt 0.250000 0.375000
vt 0.250000 0.250000
vt 0.375000 0.250000
vt 0.375000 0.750000
vt 0.250000 0.437500
vt 0.375000 0.437500
vt 0.375000 0.250000
vt 0.625000 0.250000
vt 0.375000 0.250000
vt 0.375000 0.500000
vt 0.625000 0.437500
vt 0.375000 0.437500
vt 0.375000 0.375000
vt 0.000000 0.812500
vt 0.000000 1.000000
vt 0.187500 0.812500
vt 0.187500 1.000000
vt 0.000000 0.906250
vt 0.187500 0.906250
vt 0.093750 1.000000
vt 0.093750 0.812500
vt 0.093750 0.906250
vt 0.000000 0.812500
vt 0.000000 1.000000
vt 0.187500 0.812500
vt 0.187500 1.000000
vt 0.000000 0.906250
vt 0.187500 0.906250
vt 0.093750 1.000000
vt 0.093750 0.812500
vt 0.093750 0.906250
vt 0.375000 0.812500
vt 0.375000 1.000000
vt 0.562500 0.812500
vt 0.562500 1.000000
vt 0.375000 0.906250
vt 0.562500 0.906250
vt 0.468750 1.000000
vt 0.468750 0.812500
vt 0.468750 0.906250
vt 0.187500 0.812500
vt 0.187500 1.000000
vt 0.375000 0.812500
vt 0.375000 1.000000
vt 0.187500 0.906250
vt 0.375000 0.906250
vt 0.281250 1.000000
vt 0.281250 0.812500
vt 0.281250 0.906250
vt 0.187500 0.812500
vt 0.187500 1.000000
vt 0.375000 0.812500
vt 0.375000 1.000000
vt 0.187500 0.906250
vt 0.375000 0.906250
vt 0.281250 1.000000
vt 0.281250 0.812500
vt 0.281250 0.906250
s 0
usemtl Material
f 2/4/1 5/13/1 6/16/1 4/10/1
f 4/11/2 6/17/2 8/22/2 3/7/2
f 3/8/3 1/1/3 2/5/3 4/12/3
f 1/2/4 7/19/4 5/14/4 2/6/4
f 3/9/5 8/23/5 7/20/5 1/3/5
f 5/15/6 7/21/6 8/24/6 6/18/6
f 9/25/2 10/28/2 12/34/2 11/31/2
f 11/32/5 12/35/5 16/46/5 15/43/5
f 15/44/4 16/47/4 14/40/4 13/37/4
f 13/38/1 14/41/1 10/29/1 9/26/1
f 11/33/3 15/45/3 13/39/3 9/27/3
f 16/48/6 12/36/6 10/30/6 14/42/6
f 17/49/2 18/52/2 20/58/2 19/55/2
f 19/56/5 20/59/5 24/70/5 23/67/5
f 23/68/4 24/71/4 22/64/4 21/61/4
f 21/62/1 22/65/1 18/53/1 17/50/1
f 19/57/3 23/69/3 21/63/3 17/51/3
f 24/72/6 20/60/6 18/54/6 22/66/6
f 25/73/2 26/76/2 28/82/2 27/79/2
f 27/80/5 28/83/5 32/94/5 31/91/5
f 31/92/4 32/95/4 30/88/4 29/85/4
f 29/86/1 30/89/1 26/77/1 25/74/1
f 27/81/3 31/93/3 29/87/3 25/75/3
f 32/96/6 28/84/6 26/78/6 30/90/6
f 33/97/2 34/100/2 36/106/2 35/103/2
f 35/104/5 36/107/5 40/118/5 39/115/5
f 39/116/4 40/119/4 38/112/4 37/109/4
f 37/110/1 38/113/1 34/101/1 33/98/1
f 35/105/3 39/117/3 37/111/3 33/99/3
f 40/120/6 36/108/6 34/102/6 38/114/6
f 41/121/2 42/124/2 44/130/2 43/127/2
f 43/128/5 44/131/5 48/142/5 47/139/5
f 47/140/4 48/143/4 46/136/4 45/133/4
f 45/134/1 46/137/1 42/125/1 41/122/1
f 43/129/3 47/141/3 45/135/3 41/123/3
f 48/144/6 44/132/6 42/126/6 46/138/6
f 49/145/2 50/148/2 52/154/2 51/151/2
f 51/152/5 52/155/5 56/166/5 55/163/5
f 55/164/4 56/167/4 54/160/4 53/157/4
f 53/158/1 54/161/1 50/149/1 49/146/1
f 51/153/3 55/165/3 53/159/3 49/147/3
f 56/168/6 52/156/6 50/150/6 54/162/6
f 57/169/2 58/172/2 60/179/2 59/175/2
f 59/176/5 60/178/5 64/188/5 63/187/5
f 63/186/4 64/189/4 62/183/4 61/180/4
f 61/181/1 62/184/1 58/173/1 57/170/1
f 59/177/3 63/187/3 61/182/3 57/171/3
f 64/190/6 60/179/6 58/174/6 62/185/6
f 65/191/2 66/194/2 68/200/2 67/197/2
f 67/198/5 68/201/5 72/212/5 71/209/5
f 71/210/4 72/213/4 70/206/4 69/203/4
f 69/204/1 70/207/1 66/195/1 65/192/1
f 67/199/3 71/211/3 69/205/3 65/193/3
f 72/214/6 68/202/6 66/196/6 70/208/6
f 81/223/7 77/219/7 73/215/7
f 79/221/8 74/216/8 81/223/8
f 76/218/9 81/223/9 78/220/9
f 78/220/10 81/223/10 75/217/10
f 90/232/7 86/228/7 82/224/7
f 81/223/11 74/216/11 77/219/11
f 75/217/12 81/223/12 80/222/12
f 73/215/13 80/222/13 81/223/13
f 81/223/14 76/218/14 79/221/14
f 88/230/8 83/225/8 90/232/8
f 85/227/9 90/232/9 87/229/9
f 87/229/10 90/232/10 84/226/10
f 90/232/11 83/225/11 86/228/11
f 84/226/12 90/232/12 89/231/12
f 82/224/13 89/231/13 90/232/13
f 90/232/14 85/227/14 88/230/14
f 99/241/7 95/237/7 91/233/7
f 97/239/8 92/234/8 99/241/8
f 94/236/9 99/241/9 96/238/9
f 96/238/10 99/241/10 93/235/10
f 99/241/11 92/234/11 95/237/11
f 93/235/12 99/241/12 98/240/12
f 91/233/13 98/240/13 99/241/13
f 99/241/14 94/236/14 97/239/14
f 108/250/7 104/246/7 100/242/7
f 106/248/8 101/243/8 108/250/8
f 103/245/9 108/250/9 105/247/9
f 105/247/10 108/250/10 102/244/10
f 108/250/11 101/243/11 104/246/11
f 102/244/12 108/250/12 107/249/12
f 100/242/13 107/249/13 108/250/13
f 108/250/14 103/245/14 106/248/14
f 117/259/7 113/255/7 109/251/7
f 115/257/8 110/252/8 117/259/8
f 112/254/9 117/259/9 114/256/9
f 114/256/10 117/259/10 111/253/10
f 117/259/11 110/252/11 113/255/11
f 111/253/12 117/259/12 116/258/12
f 109/251/13 116/258/13 117/259/13
f 117/259/14 112/254/14 115/257/14
