# Blender 3.5.1
# www.blender.org
mtllib player.mtl
o head
v 3.900000 32.900002 -3.900000
v 3.900000 25.100000 -3.900000
v 3.900000 32.900002 3.900000
v 3.900000 25.100000 3.900000
v -3.906771 32.899113 -3.966270
v -3.906771 25.099112 -3.966270
v -3.906771 32.899113 3.833730
v -3.906771 25.099112 3.833730
vn -0.0001 1.0000 -0.0000
vn -0.0085 -0.0000 1.0000
vn -1.0000 -0.0000 -0.0000
vn 0.0001 -1.0000 -0.0000
vn 1.0000 -0.0000 -0.0000
vn 0.0085 -0.0000 -1.0000
vt 0.250000 1.000000
vt 0.375000 0.875000
vt 0.375000 0.875000
vt 0.375000 0.750000
vt 0.250000 0.875000
vt 0.375000 1.000000
vt 0.250000 0.750000
vt 0.125000 1.000000
vt 0.000000 0.875000
vt 0.500000 0.875000
vt -0.000000 0.750000
vt 0.250000 0.875000
vt 0.500000 0.750000
vt 0.125000 0.875000
vt 0.125000 0.750000
vt 0.250000 1.000000
s 0
usemtl Material
f 1/1/1 5/8/1 7/14/1 3/5/1
f 4/7/2 3/5/2 7/14/2 8/15/2
f 8/15/3 7/14/3 5/9/3 6/11/3
f 6/12/4 2/3/4 4/6/4 8/16/4
f 2/4/5 1/2/5 3/5/5 4/7/5
f 6/13/6 5/10/6 1/2/6 2/4/6
o torso
v -4.000000 13.000000 2.000000
v -4.000000 25.000000 2.000000
v -4.000000 13.000000 -2.000000
v -4.000000 25.000000 -2.000000
v 4.000000 13.000000 2.000000
v 4.000000 25.000000 2.000000
v 4.000000 13.000000 -2.000000
v 4.000000 25.000000 -2.000000
vn -1.0000 -0.0000 -0.0000
vn -0.0000 -0.0000 -1.0000
vn 1.0000 -0.0000 -0.0000
vn -0.0000 -0.0000 1.0000
vn -0.0000 -1.0000 -0.0000
vn -0.0000 1.0000 -0.0000
vt 0.062500 0.500000
vt 0.187500 0.750000
vt 0.062500 0.687500
vt -0.000000 0.500000
vt 0.375000 0.500000
vt 0.187500 0.687500
vt -0.000000 0.687500
vt 0.375000 0.687500
vt 0.062500 0.750000
vt 0.187500 0.500000
vt 0.312500 0.750000
vt 0.187500 0.687500
vt 0.250000 0.500000
vt 0.312500 0.687500
vt 0.250000 0.687500
vt 0.187500 0.750000
s 0
usemtl Material
f 9/17/7 10/19/7 12/23/7 11/20/7
f 11/21/8 12/24/8 16/31/8 15/29/8
f 15/29/9 16/31/9 14/28/9 13/26/9
f 13/26/10 14/28/10 10/19/10 9/17/10
f 11/22/11 15/30/11 13/27/11 9/18/11
f 16/32/12 12/25/12 10/19/12 14/28/12
o leg_r
v -4.000000 1.000000 2.000000
v -4.000000 13.000000 2.000000
v -4.000000 1.000000 -2.000000
v -4.000000 13.000000 -2.000000
v 0.000000 1.000000 2.000000
v 0.000000 13.000000 2.000000
v 0.000000 1.000000 -2.000000
v 0.000000 13.000000 -2.000000
vn -1.0000 -0.0000 -0.0000
vn -0.0000 -0.0000 -1.0000
vn 1.0000 -0.0000 -0.0000
vn -0.0000 -0.0000 1.0000
vn -0.0000 -1.0000 -0.0000
vn -0.0000 1.0000 -0.0000
vt 0.562500 0.500000
vt 0.625000 0.750000
vt 0.562500 0.687500
vt 0.500000 0.500000
vt 0.750000 0.500000
vt 0.625000 0.687500
vt 0.500000 0.687500
vt 0.750000 0.687500
vt 0.562500 0.750000
vt 0.625000 0.500000
vt 0.687500 0.750000
vt 0.625000 0.687500
vt 0.687500 0.500000
vt 0.687500 0.687500
vt 0.687500 0.687500
vt 0.625000 0.750000
s 0
usemtl Material
f 17/33/13 18/35/13 20/39/13 19/36/13
f 19/37/14 20/40/14 24/47/14 23/45/14
f 23/45/15 24/47/15 22/44/15 21/42/15
f 21/42/16 22/44/16 18/35/16 17/33/16
f 19/38/17 23/46/17 21/43/17 17/34/17
f 24/48/18 20/41/18 18/35/18 22/44/18
o leg_l
v 0.000000 1.000000 2.000000
v 0.000000 13.000000 2.000000
v 0.000000 1.000000 -2.000000
v 0.000000 13.000000 -2.000000
v 4.000000 1.000000 2.000000
v 4.000000 13.000000 2.000000
v 4.000000 1.000000 -2.000000
v 4.000000 13.000000 -2.000000
vn -1.0000 -0.0000 -0.0000
vn -0.0000 -0.0000 -1.0000
vn 1.0000 -0.0000 -0.0000
vn -0.0000 -0.0000 1.0000
vn -0.0000 -1.0000 -0.0000
vn -0.0000 1.0000 -0.0000
vt 0.812500 0.500000
vt 0.875000 0.750000
vt 0.812500 0.687500
vt 0.750000 0.500000
vt 1.000000 0.500000
vt 0.875000 0.687500
vt 0.750000 0.687500
vt 1.000000 0.687500
vt 0.812500 0.750000
vt 0.875000 0.500000
vt 0.937500 0.750000
vt 0.875000 0.687500
vt 0.937500 0.500000
vt 0.937500 0.687500
vt 0.937500 0.687500
vt 0.875000 0.750000
s 0
usemtl Material
f 25/49/19 26/51/19 28/55/19 27/52/19
f 27/53/20 28/56/20 32/63/20 31/61/20
f 31/61/21 32/63/21 30/60/21 29/58/21
f 29/58/22 30/60/22 26/51/22 25/49/22
f 27/54/23 31/62/23 29/59/23 25/50/23
f 32/64/24 28/57/24 26/51/24 30/60/24
o arm_l
v 4.000000 13.000000 2.000000
v 4.000000 25.000000 2.000000
v 4.000000 13.000000 -2.000000
v 4.000000 25.000000 -2.000000
v 8.000000 13.000000 2.000000
v 8.000000 25.000000 2.000000
v 8.000000 13.000000 -2.000000
v 8.000000 25.000000 -2.000000
vn -1.0000 -0.0000 -0.0000
vn -0.0000 -0.0000 -1.0000
vn 1.0000 -0.0000 -0.0000
vn -0.0000 -0.0000 1.0000
vn -0.0000 -1.0000 -0.0000
vn -0.0000 1.0000 -0.0000
vt 0.812500 0.750000
vt 0.875000 1.000000
vt 0.812500 0.937500
vt 0.750000 0.750000
vt 1.000000 0.750000
vt 0.875000 0.937500
vt 0.750000 0.937500
vt 1.000000 0.937500
vt 0.812500 1.000000
vt 0.875000 0.750000
vt 0.937500 1.000000
vt 0.875000 0.937500
vt 0.937500 0.750000
vt 0.937500 0.937500
vt 0.937500 0.937500
vt 0.875000 1.000000
s 0
usemtl Material
f 33/65/25 34/67/25 36/71/25 35/68/25
f 35/69/26 36/72/26 40/79/26 39/77/26
f 39/77/27 40/79/27 38/76/27 37/74/27
f 37/74/28 38/76/28 34/67/28 33/65/28
f 35/70/29 39/78/29 37/75/29 33/66/29
f 40/80/30 36/73/30 34/67/30 38/76/30
o arm_r
v -8.000000 13.000000 2.000000
v -8.000000 25.000000 2.000000
v -8.000000 13.000000 -2.000000
v -8.000000 25.000000 -2.000000
v -4.000000 13.000000 2.000000
v -4.000000 25.000000 2.000000
v -4.000000 13.000000 -2.000000
v -4.000000 25.000000 -2.000000
vn -1.0000 -0.0000 -0.0000
vn -0.0000 -0.0000 -1.0000
vn 1.0000 -0.0000 -0.0000
vn -0.0000 -0.0000 1.0000
vn -0.0000 -1.0000 -0.0000
vn -0.0000 1.0000 -0.0000
vt 0.562500 0.750000
vt 0.625000 1.000000
vt 0.562500 0.937500
vt 0.500000 0.750000
vt 0.750000 0.750000
vt 0.625000 0.937500
vt 0.500000 0.937500
vt 0.750000 0.937500
vt 0.562500 1.000000
vt 0.625000 0.750000
vt 0.687500 1.000000
vt 0.625000 0.937500
vt 0.687500 0.750000
vt 0.687500 0.937500
vt 0.687500 0.937500
vt 0.625000 1.000000
s 0
usemtl Material
f 41/81/31 42/83/31 44/87/31 43/84/31
f 43/85/32 44/88/32 48/95/32 47/93/32
f 47/93/33 48/95/33 46/92/33 45/90/33
f 45/90/34 46/92/34 42/83/34 41/81/34
f 43/86/35 47/94/35 45/91/35 41/82/35
f 48/96/36 44/89/36 42/83/36 46/92/36
